<svg xmlns="http://www.w3.org/2000/svg" xmlns:xlink="http://www.w3.org/1999/xlink" xmlns:inkscape="http://www.inkscape.org/namespaces/inkscape" version="1.1" width="205" height="119" viewBox="0 0 205 119">
<defs>
<clipPath id="clip_1">
<path transform="matrix(1,0,0,-1,-113,374)" d="M0 0H842V596H0Z"/>
</clipPath>
</defs>
<g clip-path="url(#clip_1)">
<path transform="matrix(.0072,0,0,-.0072,-113,374)" stroke-width="60" stroke-linecap="round" stroke-linejoin="round" fill="none" stroke="#840000" d="M35700 49680 36000 50180"/>
<path transform="matrix(.0072,0,0,-.0072,-113,374)" stroke-width="60" stroke-linecap="round" stroke-linejoin="round" fill="none" stroke="#840000" d="M36000 49180V50180"/>
<path transform="matrix(.0072,0,0,-.0072,-113,374)" stroke-width="60" stroke-linecap="round" stroke-linejoin="round" fill="none" stroke="#840000" d="M36000 50180 36300 49680"/>
<text fill-opacity="0" xml:space="preserve" transform="matrix(.0072 0 -0 .0072 140.65599 9.391998)" font-size="696.379" font-family="Nimbus Sans"><tspan y="0" x="0 406.6854 793.8722 987.4656 1374.6524">+3.3V</tspan></text>
<path transform="matrix(.0072,0,0,-.0072,140.65599,9.391998)" stroke-width="60" stroke-linecap="round" stroke-linejoin="round" fill="none" stroke="#008484" d=""/>
<path transform="matrix(.0072,0,0,-.0072,-113,374)" stroke-width="60" stroke-linecap="round" stroke-linejoin="round" fill="none" stroke="#008484" d="M35150 50860H35530"/>
<path transform="matrix(.0072,0,0,-.0072,-113,374)" stroke-width="60" stroke-linecap="round" stroke-linejoin="round" fill="none" stroke="#008484" d="M35340 50670V51050"/>
<path transform="matrix(.0072,0,0,-.0072,-113,374)" stroke-width="60" stroke-linecap="round" stroke-linejoin="round" fill="none" stroke="#008484" d="M35720 51170H36030L35860 50980H35930L35980 50950 36000 50930 36030 50880V50760L36000 50720 35980 50690 35930 50670H35790L35740 50690 35720 50720"/>
<path transform="matrix(.0072,0,0,-.0072,-113,374)" stroke-width="60" stroke-linecap="round" stroke-linejoin="round" fill="none" stroke="#008484" d="M36240 50720 36260 50690 36240 50670 36220 50690 36240 50720V50670"/>
<path transform="matrix(.0072,0,0,-.0072,-113,374)" stroke-width="60" stroke-linecap="round" stroke-linejoin="round" fill="none" stroke="#008484" d="M36430 51170H36740L36570 50980H36650L36690 50950 36720 50930 36740 50880V50760L36720 50720 36690 50690 36650 50670H36500L36450 50690 36430 50720"/>
<path transform="matrix(.0072,0,0,-.0072,-113,374)" stroke-width="60" stroke-linecap="round" stroke-linejoin="round" fill="none" stroke="#008484" d="M36880 51170 37050 50670 37220 51170"/>
<path transform="matrix(.0072,0,0,-.0072,-113,374)" stroke-width="100" stroke-linecap="round" stroke-linejoin="round" fill="none" stroke="#840000" d="M22500 40680H23500"/>
<path transform="matrix(.0072,0,0,-.0072,-113,374)" stroke-width="60" stroke-linecap="round" stroke-linejoin="round" fill="none" stroke="#840000" d="M23000 41680V40680"/>
<path transform="matrix(.0072,0,0,-.0072,-113,374)" stroke-width="100" stroke-linecap="round" stroke-linejoin="round" fill="none" stroke="#840000" d="M22500 41680H23500L23000 40680 22500 41680"/>
<path transform="matrix(.0072,0,0,-.0072,-113,374)" stroke-width="60" stroke-linecap="round" stroke-linejoin="round" fill="none" stroke="#840000" d="M23000 40680V39680"/>
<path transform="matrix(.0072,0,0,-.0072,-113,374)" stroke-width="60" stroke-linecap="round" stroke-linejoin="round" fill="none" stroke="#840000" d="M23000 41680V42680"/>
<text fill-opacity="0" xml:space="preserve" transform="matrix(.0072 0 -0 .0072 58.936006 75.776)" font-size="696.379" font-family="Nimbus Sans"><tspan y="0" x="0 502.7857">D1</tspan></text>
<path transform="matrix(.0072,0,0,-.0072,58.936006,75.776)" stroke-width="60" stroke-linecap="round" stroke-linejoin="round" fill="none" stroke="#008484" d=""/>
<path transform="matrix(.0072,0,0,-.0072,-113,374)" stroke-width="60" stroke-linecap="round" stroke-linejoin="round" fill="none" stroke="#008484" d="M23950 41450V41950H24070L24140 41920 24180 41880 24210 41830 24230 41730V41660L24210 41570 24180 41520 24140 41470 24070 41450H23950"/>
<path transform="matrix(.0072,0,0,-.0072,-113,374)" stroke-width="60" stroke-linecap="round" stroke-linejoin="round" fill="none" stroke="#008484" d="M24710 41450H24420"/>
<path transform="matrix(.0072,0,0,-.0072,-113,374)" stroke-width="60" stroke-linecap="round" stroke-linejoin="round" fill="none" stroke="#008484" d="M24570 41450V41950L24520 41880 24470 41830 24420 41810"/>
<text fill-opacity="0" xml:space="preserve" transform="matrix(.0072 0 -0 .0072 60.231996 82.328)" font-size="696.379" font-family="Nimbus Sans"><tspan y="0" x="0 387.18678 889.9725 1277.1592 1664.346 2051.5328">1N5819</tspan></text>
<path transform="matrix(.0072,0,0,-.0072,60.231996,82.328)" stroke-width="60" stroke-linecap="round" stroke-linejoin="round" fill="none" stroke="#008484" d=""/>
<path transform="matrix(.0072,0,0,-.0072,-113,374)" stroke-width="60" stroke-linecap="round" stroke-linejoin="round" fill="none" stroke="#008484" d="M24200 40540H23920"/>
<path transform="matrix(.0072,0,0,-.0072,-113,374)" stroke-width="60" stroke-linecap="round" stroke-linejoin="round" fill="none" stroke="#008484" d="M24060 40540V41040L24010 40970 23970 40920 23920 40900"/>
<path transform="matrix(.0072,0,0,-.0072,-113,374)" stroke-width="60" stroke-linecap="round" stroke-linejoin="round" fill="none" stroke="#008484" d="M24420 40540V41040L24700 40540V41040"/>
<path transform="matrix(.0072,0,0,-.0072,-113,374)" stroke-width="60" stroke-linecap="round" stroke-linejoin="round" fill="none" stroke="#008484" d="M25180 41040H24940L24920 40800 24940 40820 24990 40850H25110L25160 40820 25180 40800 25200 40750V40630L25180 40590 25160 40560 25110 40540H24990L24940 40560 24920 40590"/>
<path transform="matrix(.0072,0,0,-.0072,-113,374)" stroke-width="60" stroke-linecap="round" stroke-linejoin="round" fill="none" stroke="#008484" d="M25490 40820 25440 40850 25420 40870 25390 40920V40940L25420 40990 25440 41010 25490 41040H25580L25630 41010 25660 40990 25680 40940V40920L25660 40870 25630 40850 25580 40820H25490L25440 40800 25420 40780 25390 40730V40630L25420 40590 25440 40560 25490 40540H25580L25630 40560 25660 40590 25680 40630V40730L25660 40780 25630 40800 25580 40820"/>
<path transform="matrix(.0072,0,0,-.0072,-113,374)" stroke-width="60" stroke-linecap="round" stroke-linejoin="round" fill="none" stroke="#008484" d="M26160 40540H25870"/>
<path transform="matrix(.0072,0,0,-.0072,-113,374)" stroke-width="60" stroke-linecap="round" stroke-linejoin="round" fill="none" stroke="#008484" d="M26010 40540V41040L25970 40970 25920 40920 25870 40900"/>
<path transform="matrix(.0072,0,0,-.0072,-113,374)" stroke-width="60" stroke-linecap="round" stroke-linejoin="round" fill="none" stroke="#008484" d="M26390 40540H26490L26540 40560 26560 40590 26610 40660 26630 40750V40940L26610 40990 26580 41010 26540 41040H26440L26390 41010 26370 40990 26350 40940V40820L26370 40780 26390 40750 26440 40730H26540L26580 40750 26610 40780 26630 40820"/>
<path transform="matrix(.0072,0,0,-.0072,-113,374)" stroke-width="60" stroke-linecap="round" stroke-linejoin="round" fill="none" stroke="#840000" d="M23000 38180V37680H23500L23000 37180 22500 37680H23000"/>
<text fill-opacity="0" xml:space="preserve" transform="matrix(.0072 0 -0 .0072 47.416 113.504)" font-size="696.379" font-family="Nimbus Sans"><tspan y="0" x="0 541.7829 1044.5686">GND</tspan></text>
<path transform="matrix(.0072,0,0,-.0072,47.416,113.504)" stroke-width="60" stroke-linecap="round" stroke-linejoin="round" fill="none" stroke="#008484" d=""/>
<path transform="matrix(.0072,0,0,-.0072,-113,374)" stroke-width="60" stroke-linecap="round" stroke-linejoin="round" fill="none" stroke="#008484" d="M22660 36680 22620 36710H22550L22470 36680 22430 36640 22400 36590 22380 36490V36420L22400 36330 22430 36280 22470 36230 22550 36210H22590L22660 36230 22690 36260V36420H22590"/>
<path transform="matrix(.0072,0,0,-.0072,-113,374)" stroke-width="60" stroke-linecap="round" stroke-linejoin="round" fill="none" stroke="#008484" d="M22900 36210V36710L23190 36210V36710"/>
<path transform="matrix(.0072,0,0,-.0072,-113,374)" stroke-width="60" stroke-linecap="round" stroke-linejoin="round" fill="none" stroke="#008484" d="M23430 36210V36710H23550L23620 36680 23660 36640 23690 36590 23710 36490V36420L23690 36330 23660 36280 23620 36230 23550 36210H23430"/>
<path transform="matrix(.0072,0,0,-.0072,-113,374)" stroke-width="100" stroke-linecap="round" stroke-linejoin="round" fill="none" stroke="#840000" d="M15830 45580C15830 46225.6 16354.4 46750 17000 46750 17645.6 46750 18170 46225.6 18170 45580 18170 44934.4 17645.6 44410 17000 44410 16354.4 44410 15830 44934.4 15830 45580Z"/>
<path transform="matrix(.0072,0,0,-.0072,-113,374)" stroke-width="60" stroke-linecap="round" stroke-linejoin="round" fill="none" stroke="#840000" d="M16500 44480V44180H17500V44480"/>
<path transform="matrix(.0072,0,0,-.0072,-113,374)" stroke-width="60" stroke-linecap="round" stroke-linejoin="round" fill="none" stroke="#840000" d="M16500 46680V46980H17500V46680"/>
<path transform="matrix(.0072,0,0,-.0072,-113,374)" stroke-width="60" stroke-linecap="round" stroke-linejoin="round" fill="none" stroke="#840000" d="M16500 44880V46380L17000 45380 17500 46380V44880"/>
<path transform="matrix(.0072,0,0,-.0072,-113,374)" stroke-width="60" stroke-linecap="round" stroke-linejoin="round" fill="none" stroke="#840000" d="M17000 46980V47180"/>
<path transform="matrix(.0072,0,0,-.0072,-113,374)" stroke-width="60" stroke-linecap="round" stroke-linejoin="round" fill="none" stroke="#840000" d="M17000 47180V48180"/>
<text fill-opacity="0" xml:space="preserve" transform="matrix(0 -.0072 .0072 0 8.68 32.144014)" font-size="696.379" font-family="Nimbus Sans"><tspan y="0" x="0">+</tspan></text>
<path transform="matrix(0,-.0072,-.0072,-0,8.68,32.144014)" stroke-width="60" stroke-linecap="round" stroke-linejoin="round" fill="none" stroke="#008484" d=""/>
<path transform="matrix(.0072,0,0,-.0072,-113,374)" stroke-width="60" stroke-linecap="round" stroke-linejoin="round" fill="none" stroke="#008484" d="M16680 47490V47880"/>
<path transform="matrix(.0072,0,0,-.0072,-113,374)" stroke-width="60" stroke-linecap="round" stroke-linejoin="round" fill="none" stroke="#008484" d="M16870 47680H16490"/>
<text fill-opacity="0" xml:space="preserve" transform="matrix(0 -.0072 .0072 0 13.720001 32.07199)" font-size="696.379" font-family="Nimbus Sans"><tspan y="0" x="0">1</tspan></text>
<path transform="matrix(0,-.0072,-.0072,-0,13.720001,32.07199)" stroke-width="60" stroke-linecap="round" stroke-linejoin="round" fill="none" stroke="#840000" d=""/>
<path transform="matrix(.0072,0,0,-.0072,-113,374)" stroke-width="60" stroke-linecap="round" stroke-linejoin="round" fill="none" stroke="#840000" d="M17570 47830V47540"/>
<path transform="matrix(.0072,0,0,-.0072,-113,374)" stroke-width="60" stroke-linecap="round" stroke-linejoin="round" fill="none" stroke="#840000" d="M17570 47680H17070L17140 47640 17190 47590 17210 47540"/>
<path transform="matrix(.0072,0,0,-.0072,-113,374)" stroke-width="60" stroke-linecap="round" stroke-linejoin="round" fill="none" stroke="#840000" d="M17000 44180V43180"/>
<text fill-opacity="0" xml:space="preserve" transform="matrix(0 -.0072 .0072 0 8.68 60.29602)" font-size="696.379" font-family="Nimbus Sans"><tspan y="0" x="0">-</tspan></text>
<path transform="matrix(0,-.0072,-.0072,-0,8.68,60.29602)" stroke-width="60" stroke-linecap="round" stroke-linejoin="round" fill="none" stroke="#008484" d=""/>
<path transform="matrix(.0072,0,0,-.0072,-113,374)" stroke-width="60" stroke-linecap="round" stroke-linejoin="round" fill="none" stroke="#008484" d="M16680 43490V43880"/>
<text fill-opacity="0" xml:space="preserve" transform="matrix(0 -.0072 .0072 0 13.720001 60.87201)" font-size="696.379" font-family="Nimbus Sans"><tspan y="0" x="0">2</tspan></text>
<path transform="matrix(0,-.0072,-.0072,-0,13.720001,60.87201)" stroke-width="60" stroke-linecap="round" stroke-linejoin="round" fill="none" stroke="#840000" d=""/>
<path transform="matrix(.0072,0,0,-.0072,-113,374)" stroke-width="60" stroke-linecap="round" stroke-linejoin="round" fill="none" stroke="#840000" d="M17120 43540 17100 43570 17070 43610V43730L17100 43780 17120 43800 17170 43830H17210L17290 43800 17570 43520V43830"/>
<text fill-opacity="0" xml:space="preserve" transform="matrix(.0072 0 -0 .0072 20.703995 36.248018)" font-size="696.379" font-family="Nimbus Sans"><tspan y="0" x="0 580.0838">M1</tspan></text>
<path transform="matrix(.0072,0,0,-.0072,20.703995,36.248018)" stroke-width="60" stroke-linecap="round" stroke-linejoin="round" fill="none" stroke="#008484" d=""/>
<path transform="matrix(.0072,0,0,-.0072,-113,374)" stroke-width="60" stroke-linecap="round" stroke-linejoin="round" fill="none" stroke="#008484" d="M18640 46940V47440L18810 47080 18970 47440V46940"/>
<path transform="matrix(.0072,0,0,-.0072,-113,374)" stroke-width="60" stroke-linecap="round" stroke-linejoin="round" fill="none" stroke="#008484" d="M19470 46940H19190"/>
<path transform="matrix(.0072,0,0,-.0072,-113,374)" stroke-width="60" stroke-linecap="round" stroke-linejoin="round" fill="none" stroke="#008484" d="M19330 46940V47440L19280 47370 19240 47320 19190 47300"/>
<text fill-opacity="0" xml:space="preserve" transform="matrix(.0072 0 -0 .0072 22.576004 43.447999)" font-size="696.379" font-family="Nimbus Sans"><tspan y="0" x="0 502.7857 889.9725 1277.1592 1470.7526 1857.9393 2245.126 2747.9117 3212.3966">N20 60RPM</tspan></text>
<path transform="matrix(.0072,0,0,-.0072,22.576004,43.447999)" stroke-width="60" stroke-linecap="round" stroke-linejoin="round" fill="none" stroke="#008484" d=""/>
<path transform="matrix(.0072,0,0,-.0072,-113,374)" stroke-width="60" stroke-linecap="round" stroke-linejoin="round" fill="none" stroke="#008484" d="M18640 45940V46440L18930 45940V46440"/>
<path transform="matrix(.0072,0,0,-.0072,-113,374)" stroke-width="60" stroke-linecap="round" stroke-linejoin="round" fill="none" stroke="#008484" d="M19140 46390 19170 46410 19220 46440H19330L19380 46410 19410 46390 19430 46340V46300L19410 46220 19120 45940H19430"/>
<path transform="matrix(.0072,0,0,-.0072,-113,374)" stroke-width="60" stroke-linecap="round" stroke-linejoin="round" fill="none" stroke="#008484" d="M19740 46440H19790L19830 46410 19860 46390 19880 46340 19910 46250V46130L19880 46030 19860 45990 19830 45960 19790 45940H19740L19690 45960 19670 45990 19640 46030 19620 46130V46250L19640 46340 19670 46390 19690 46410 19740 46440"/>
<path transform="matrix(.0072,0,0,-.0072,-113,374)" stroke-width="60" stroke-linecap="round" stroke-linejoin="round" fill="none" stroke="#008484" d="M20720 46440H20620L20570 46410 20550 46390 20500 46320 20480 46220V46030L20500 45990 20520 45960 20570 45940H20670L20720 45960 20740 45990 20760 46030V46150L20740 46200 20720 46220 20670 46250H20570L20520 46220 20500 46200 20480 46150"/>
<path transform="matrix(.0072,0,0,-.0072,-113,374)" stroke-width="60" stroke-linecap="round" stroke-linejoin="round" fill="none" stroke="#008484" d="M21070 46440H21120L21170 46410 21190 46390 21220 46340 21240 46250V46130L21220 46030 21190 45990 21170 45960 21120 45940H21070L21020 45960 21000 45990 20980 46030 20950 46130V46250L20980 46340 21000 46390 21020 46410 21070 46440"/>
<path transform="matrix(.0072,0,0,-.0072,-113,374)" stroke-width="60" stroke-linecap="round" stroke-linejoin="round" fill="none" stroke="#008484" d="M21740 45940 21570 46180"/>
<path transform="matrix(.0072,0,0,-.0072,-113,374)" stroke-width="60" stroke-linecap="round" stroke-linejoin="round" fill="none" stroke="#008484" d="M21450 45940V46440H21640L21690 46410 21720 46390 21740 46340V46270L21720 46220 21690 46200 21640 46180H21450"/>
<path transform="matrix(.0072,0,0,-.0072,-113,374)" stroke-width="60" stroke-linecap="round" stroke-linejoin="round" fill="none" stroke="#008484" d="M21950 45940V46440H22140L22190 46410 22220 46390 22240 46340V46270L22220 46220 22190 46200 22140 46180H21950"/>
<path transform="matrix(.0072,0,0,-.0072,-113,374)" stroke-width="60" stroke-linecap="round" stroke-linejoin="round" fill="none" stroke="#008484" d="M22450 45940V46440L22620 46080 22790 46440V45940"/>
<path transform="matrix(.0072,0,0,-.0072,-113,374)" stroke-width="60" stroke-linecap="round" stroke-linejoin="round" fill="none" stroke="#840000" d="M33000 38180V37680H33500L33000 37180 32500 37680H33000"/>
<text fill-opacity="0" xml:space="preserve" transform="matrix(.0072 0 -0 .0072 119.416 113.504)" font-size="696.379" font-family="Nimbus Sans"><tspan y="0" x="0 541.7829 1044.5686">GND</tspan></text>
<path transform="matrix(.0072,0,0,-.0072,119.416,113.504)" stroke-width="60" stroke-linecap="round" stroke-linejoin="round" fill="none" stroke="#008484" d=""/>
<path transform="matrix(.0072,0,0,-.0072,-113,374)" stroke-width="60" stroke-linecap="round" stroke-linejoin="round" fill="none" stroke="#008484" d="M32660 36680 32620 36710H32550L32470 36680 32430 36640 32400 36590 32380 36490V36420L32400 36330 32430 36280 32470 36230 32550 36210H32590L32660 36230 32690 36260V36420H32590"/>
<path transform="matrix(.0072,0,0,-.0072,-113,374)" stroke-width="60" stroke-linecap="round" stroke-linejoin="round" fill="none" stroke="#008484" d="M32900 36210V36710L33190 36210V36710"/>
<path transform="matrix(.0072,0,0,-.0072,-113,374)" stroke-width="60" stroke-linecap="round" stroke-linejoin="round" fill="none" stroke="#008484" d="M33430 36210V36710H33550L33620 36680 33660 36640 33690 36590 33710 36490V36420L33690 36330 33660 36280 33620 36230 33550 36210H33430"/>
<path transform="matrix(.0072,0,0,-.0072,-113,374)" stroke-width="60" stroke-linecap="round" stroke-linejoin="round" fill="none" stroke="#840000" d="M36000 41180V40680H36500L36000 40180 35500 40680H36000"/>
<text fill-opacity="0" xml:space="preserve" transform="matrix(.0072 0 -0 .0072 141.01599 91.90399)" font-size="696.379" font-family="Nimbus Sans"><tspan y="0" x="0 541.7829 1044.5686">GND</tspan></text>
<path transform="matrix(.0072,0,0,-.0072,141.01599,91.90399)" stroke-width="60" stroke-linecap="round" stroke-linejoin="round" fill="none" stroke="#008484" d=""/>
<path transform="matrix(.0072,0,0,-.0072,-113,374)" stroke-width="60" stroke-linecap="round" stroke-linejoin="round" fill="none" stroke="#008484" d="M35660 39680 35620 39710H35550L35470 39680 35430 39640 35400 39590 35380 39490V39420L35400 39330 35430 39280 35470 39230 35550 39210H35590L35660 39230 35690 39260V39420H35590"/>
<path transform="matrix(.0072,0,0,-.0072,-113,374)" stroke-width="60" stroke-linecap="round" stroke-linejoin="round" fill="none" stroke="#008484" d="M35900 39210V39710L36190 39210V39710"/>
<path transform="matrix(.0072,0,0,-.0072,-113,374)" stroke-width="60" stroke-linecap="round" stroke-linejoin="round" fill="none" stroke="#008484" d="M36430 39210V39710H36550L36620 39680 36660 39640 36690 39590 36710 39490V39420L36690 39330 36660 39280 36620 39230 36550 39210H36430"/>
<path transform="matrix(.0072,0,0,-.0072,-113,374)" stroke-width="100" stroke-linecap="round" stroke-linejoin="round" fill="none" stroke="#840000" d="M39500 38280H37500V39080H39500Z"/>
<path transform="matrix(.0072,0,0,-.0072,-113,374)" stroke-width="60" stroke-linecap="round" stroke-linejoin="round" fill="none" stroke="#840000" d="M37500 38680H37000"/>
<path transform="matrix(.0072,0,0,-.0072,-113,374)" stroke-width="60" stroke-linecap="round" stroke-linejoin="round" fill="none" stroke="#840000" d="M39500 38680H40000"/>
<text fill-opacity="0" xml:space="preserve" transform="matrix(.0072 0 -0 .0072 161.03199 82.18399)" font-size="696.379" font-family="Nimbus Sans"><tspan y="0" x="0 502.7857">R5</tspan></text>
<path transform="matrix(.0072,0,0,-.0072,161.03199,82.18399)" stroke-width="60" stroke-linecap="round" stroke-linejoin="round" fill="none" stroke="#008484" d=""/>
<path transform="matrix(.0072,0,0,-.0072,-113,374)" stroke-width="60" stroke-linecap="round" stroke-linejoin="round" fill="none" stroke="#008484" d="M38410 40560 38250 40800"/>
<path transform="matrix(.0072,0,0,-.0072,-113,374)" stroke-width="60" stroke-linecap="round" stroke-linejoin="round" fill="none" stroke="#008484" d="M38130 40560V41060H38320L38360 41030 38390 41010 38410 40960V40890L38390 40840 38360 40820 38320 40800H38130"/>
<path transform="matrix(.0072,0,0,-.0072,-113,374)" stroke-width="60" stroke-linecap="round" stroke-linejoin="round" fill="none" stroke="#008484" d="M38860 41060H38630L38600 40820 38630 40840 38670 40870H38790L38840 40840 38860 40820 38890 40770V40650L38860 40610 38840 40580 38790 40560H38670L38630 40580 38600 40610"/>
<text fill-opacity="0" xml:space="preserve" transform="matrix(.0072 0 -0 .0072 158.58399 88.73599)" font-size="696.379" font-family="Nimbus Sans"><tspan y="0" x="0 387.18678 774.37356 1161.5603">330k</tspan></text>
<path transform="matrix(.0072,0,0,-.0072,158.58399,88.73599)" stroke-width="60" stroke-linecap="round" stroke-linejoin="round" fill="none" stroke="#008484" d=""/>
<path transform="matrix(.0072,0,0,-.0072,-113,374)" stroke-width="60" stroke-linecap="round" stroke-linejoin="round" fill="none" stroke="#008484" d="M37640 40150H37950L37780 39960H37850L37900 39930 37930 39910 37950 39860V39740L37930 39700 37900 39670 37850 39650H37710L37660 39670 37640 39700"/>
<path transform="matrix(.0072,0,0,-.0072,-113,374)" stroke-width="60" stroke-linecap="round" stroke-linejoin="round" fill="none" stroke="#008484" d="M38120 40150H38430L38260 39960H38330L38380 39930 38400 39910 38430 39860V39740L38400 39700 38380 39670 38330 39650H38190L38140 39670 38120 39700"/>
<path transform="matrix(.0072,0,0,-.0072,-113,374)" stroke-width="60" stroke-linecap="round" stroke-linejoin="round" fill="none" stroke="#008484" d="M38740 40150H38780L38830 40120 38850 40100 38880 40050 38900 39960V39840L38880 39740 38850 39700 38830 39670 38780 39650H38740L38690 39670 38660 39700 38640 39740 38620 39840V39960L38640 40050 38660 40100 38690 40120 38740 40150"/>
<path transform="matrix(.0072,0,0,-.0072,-113,374)" stroke-width="60" stroke-linecap="round" stroke-linejoin="round" fill="none" stroke="#008484" d="M39120 39650V40150"/>
<path transform="matrix(.0072,0,0,-.0072,-113,374)" stroke-width="60" stroke-linecap="round" stroke-linejoin="round" fill="none" stroke="#008484" d="M39160 39840 39310 39650"/>
<path transform="matrix(.0072,0,0,-.0072,-113,374)" stroke-width="60" stroke-linecap="round" stroke-linejoin="round" fill="none" stroke="#008484" d="M39310 39980 39120 39790"/>
<path transform="matrix(.0072,0,0,-.0072,-113,374)" stroke-width="100" stroke-linecap="round" stroke-linejoin="round" fill="none" stroke="#840000" d="M33400 42180H32600V40180H33400Z"/>
<path transform="matrix(.0072,0,0,-.0072,-113,374)" stroke-width="60" stroke-linecap="round" stroke-linejoin="round" fill="none" stroke="#840000" d="M33000 40180V39680"/>
<path transform="matrix(.0072,0,0,-.0072,-113,374)" stroke-width="60" stroke-linecap="round" stroke-linejoin="round" fill="none" stroke="#840000" d="M33000 42180V42680"/>
<text fill-opacity="0" xml:space="preserve" transform="matrix(.0072 0 -0 .0072 130.216 75.776)" font-size="696.379" font-family="Nimbus Sans"><tspan y="0" x="0 502.7857">R4</tspan></text>
<path transform="matrix(.0072,0,0,-.0072,130.216,75.776)" stroke-width="60" stroke-linecap="round" stroke-linejoin="round" fill="none" stroke="#008484" d=""/>
<path transform="matrix(.0072,0,0,-.0072,-113,374)" stroke-width="60" stroke-linecap="round" stroke-linejoin="round" fill="none" stroke="#008484" d="M34130 41450 33970 41690"/>
<path transform="matrix(.0072,0,0,-.0072,-113,374)" stroke-width="60" stroke-linecap="round" stroke-linejoin="round" fill="none" stroke="#008484" d="M33850 41450V41950H34040L34080 41920 34110 41900 34130 41850V41780L34110 41730 34080 41710 34040 41690H33850"/>
<path transform="matrix(.0072,0,0,-.0072,-113,374)" stroke-width="60" stroke-linecap="round" stroke-linejoin="round" fill="none" stroke="#008484" d="M34560 41780V41450"/>
<path transform="matrix(.0072,0,0,-.0072,-113,374)" stroke-width="60" stroke-linecap="round" stroke-linejoin="round" fill="none" stroke="#008484" d="M34440 41970 34320 41620H34630"/>
<text fill-opacity="0" xml:space="preserve" transform="matrix(.0072 0 -0 .0072 130.57599 82.328)" font-size="696.379" font-family="Nimbus Sans"><tspan y="0" x="0 387.18678 774.37356">22k</tspan></text>
<path transform="matrix(.0072,0,0,-.0072,130.57599,82.328)" stroke-width="60" stroke-linecap="round" stroke-linejoin="round" fill="none" stroke="#008484" d=""/>
<path transform="matrix(.0072,0,0,-.0072,-113,374)" stroke-width="60" stroke-linecap="round" stroke-linejoin="round" fill="none" stroke="#008484" d="M33820 40990 33850 41010 33890 41040H34010L34060 41010 34080 40990 34110 40940V40900L34080 40820 33800 40540H34110"/>
<path transform="matrix(.0072,0,0,-.0072,-113,374)" stroke-width="60" stroke-linecap="round" stroke-linejoin="round" fill="none" stroke="#008484" d="M34300 40990 34320 41010 34370 41040H34490L34540 41010 34560 40990 34580 40940V40900L34560 40820 34270 40540H34580"/>
<path transform="matrix(.0072,0,0,-.0072,-113,374)" stroke-width="60" stroke-linecap="round" stroke-linejoin="round" fill="none" stroke="#008484" d="M34800 40540V41040"/>
<path transform="matrix(.0072,0,0,-.0072,-113,374)" stroke-width="60" stroke-linecap="round" stroke-linejoin="round" fill="none" stroke="#008484" d="M34850 40730 34990 40540"/>
<path transform="matrix(.0072,0,0,-.0072,-113,374)" stroke-width="60" stroke-linecap="round" stroke-linejoin="round" fill="none" stroke="#008484" d="M34990 40870 34800 40680"/>
<path transform="matrix(.0072,0,0,-.0072,-113,374)" stroke-width="60" stroke-linecap="round" stroke-linejoin="round" fill="none" stroke="#840000" d="M29000 38180V37680H29500L29000 37180 28500 37680H29000"/>
<text fill-opacity="0" xml:space="preserve" transform="matrix(.0072 0 -0 .0072 90.616 113.504)" font-size="696.379" font-family="Nimbus Sans"><tspan y="0" x="0 541.7829 1044.5686">GND</tspan></text>
<path transform="matrix(.0072,0,0,-.0072,90.616,113.504)" stroke-width="60" stroke-linecap="round" stroke-linejoin="round" fill="none" stroke="#008484" d=""/>
<path transform="matrix(.0072,0,0,-.0072,-113,374)" stroke-width="60" stroke-linecap="round" stroke-linejoin="round" fill="none" stroke="#008484" d="M28660 36680 28620 36710H28550L28470 36680 28430 36640 28400 36590 28380 36490V36420L28400 36330 28430 36280 28470 36230 28550 36210H28590L28660 36230 28690 36260V36420H28590"/>
<path transform="matrix(.0072,0,0,-.0072,-113,374)" stroke-width="60" stroke-linecap="round" stroke-linejoin="round" fill="none" stroke="#008484" d="M28900 36210V36710L29190 36210V36710"/>
<path transform="matrix(.0072,0,0,-.0072,-113,374)" stroke-width="60" stroke-linecap="round" stroke-linejoin="round" fill="none" stroke="#008484" d="M29430 36210V36710H29550L29620 36680 29660 36640 29690 36590 29710 36490V36420L29690 36330 29660 36280 29620 36230 29550 36210H29430"/>
<path transform="matrix(.0072,0,0,-.0072,-113,374)" stroke-width="200" stroke-linecap="round" stroke-linejoin="round" fill="none" stroke="#840000" d="M28200 40880H29800"/>
<path transform="matrix(.0072,0,0,-.0072,-113,374)" stroke-width="200" stroke-linecap="round" stroke-linejoin="round" fill="none" stroke="#840000" d="M28200 41480H29800"/>
<path transform="matrix(.0072,0,0,-.0072,-113,374)" stroke-width="60" stroke-linecap="round" stroke-linejoin="round" fill="none" stroke="#840000" d="M29000 41580V42680"/>
<path transform="matrix(.0072,0,0,-.0072,-113,374)" stroke-width="60" stroke-linecap="round" stroke-linejoin="round" fill="none" stroke="#840000" d="M29000 40780V39680"/>
<text fill-opacity="0" xml:space="preserve" transform="matrix(.0072 0 -0 .0072 104.65599 76.13602)" font-size="696.379" font-family="Nimbus Sans"><tspan y="0" x="0 502.7857">C1</tspan></text>
<path transform="matrix(.0072,0,0,-.0072,104.65599,76.13602)" stroke-width="60" stroke-linecap="round" stroke-linejoin="round" fill="none" stroke="#008484" d=""/>
<path transform="matrix(.0072,0,0,-.0072,-113,374)" stroke-width="60" stroke-linecap="round" stroke-linejoin="round" fill="none" stroke="#008484" d="M30580 41450 30560 41420 30490 41400H30440L30370 41420 30320 41470 30300 41520 30270 41610V41680L30300 41780 30320 41830 30370 41870 30440 41900H30490L30560 41870 30580 41850"/>
<path transform="matrix(.0072,0,0,-.0072,-113,374)" stroke-width="60" stroke-linecap="round" stroke-linejoin="round" fill="none" stroke="#008484" d="M31060 41400H30770"/>
<path transform="matrix(.0072,0,0,-.0072,-113,374)" stroke-width="60" stroke-linecap="round" stroke-linejoin="round" fill="none" stroke="#008484" d="M30920 41400V41900L30870 41830 30820 41780 30770 41760"/>
<text fill-opacity="0" xml:space="preserve" transform="matrix(.0072 0 -0 .0072 105.37599 82.68802)" font-size="696.379" font-family="Nimbus Sans"><tspan y="0" x="0 387.18678 774.37356 1161.5603">100n</tspan></text>
<path transform="matrix(.0072,0,0,-.0072,105.37599,82.68802)" stroke-width="60" stroke-linecap="round" stroke-linejoin="round" fill="none" stroke="#008484" d=""/>
<path transform="matrix(.0072,0,0,-.0072,-113,374)" stroke-width="60" stroke-linecap="round" stroke-linejoin="round" fill="none" stroke="#008484" d="M30560 40490H30270"/>
<path transform="matrix(.0072,0,0,-.0072,-113,374)" stroke-width="60" stroke-linecap="round" stroke-linejoin="round" fill="none" stroke="#008484" d="M30410 40490V40990L30370 40920 30320 40870 30270 40850"/>
<path transform="matrix(.0072,0,0,-.0072,-113,374)" stroke-width="60" stroke-linecap="round" stroke-linejoin="round" fill="none" stroke="#008484" d="M30870 40990H30910L30960 40960 30980 40940 31010 40890 31030 40800V40680L31010 40580 30980 40540 30960 40510 30910 40490H30870L30820 40510 30790 40540 30770 40580 30750 40680V40800L30770 40890 30790 40940 30820 40960 30870 40990"/>
<path transform="matrix(.0072,0,0,-.0072,-113,374)" stroke-width="60" stroke-linecap="round" stroke-linejoin="round" fill="none" stroke="#008484" d="M31340 40990H31390L31440 40960 31460 40940 31480 40890 31510 40800V40680L31480 40580 31460 40540 31440 40510 31390 40490H31340L31290 40510 31270 40540 31250 40580 31220 40680V40800L31250 40890 31270 40940 31290 40960 31340 40990"/>
<path transform="matrix(.0072,0,0,-.0072,-113,374)" stroke-width="60" stroke-linecap="round" stroke-linejoin="round" fill="none" stroke="#008484" d="M31720 40820V40490"/>
<path transform="matrix(.0072,0,0,-.0072,-113,374)" stroke-width="60" stroke-linecap="round" stroke-linejoin="round" fill="none" stroke="#008484" d="M31720 40770 31750 40800 31790 40820H31860L31910 40800 31940 40750V40490"/>
<path transform="matrix(.0072,0,0,-.0072,-113,374)" stroke-width="100" stroke-linecap="round" stroke-linejoin="round" fill="none" stroke="#840000" d="M25000 44580H27000V43780H25000Z"/>
<path transform="matrix(.0072,0,0,-.0072,-113,374)" stroke-width="60" stroke-linecap="round" stroke-linejoin="round" fill="none" stroke="#840000" d="M27000 44180H27500"/>
<path transform="matrix(.0072,0,0,-.0072,-113,374)" stroke-width="60" stroke-linecap="round" stroke-linejoin="round" fill="none" stroke="#840000" d="M25000 44180H24500"/>
<text fill-opacity="0" xml:space="preserve" transform="matrix(.0072 0 -0 .0072 71.032 65.048007)" font-size="696.379" font-family="Nimbus Sans"><tspan y="0" x="0 502.7857">R3</tspan></text>
<path transform="matrix(.0072,0,0,-.0072,71.032,65.048007)" stroke-width="60" stroke-linecap="round" stroke-linejoin="round" fill="none" stroke="#008484" d=""/>
<path transform="matrix(.0072,0,0,-.0072,-113,374)" stroke-width="60" stroke-linecap="round" stroke-linejoin="round" fill="none" stroke="#008484" d="M25910 42940 25750 43180"/>
<path transform="matrix(.0072,0,0,-.0072,-113,374)" stroke-width="60" stroke-linecap="round" stroke-linejoin="round" fill="none" stroke="#008484" d="M25630 42940V43440H25820L25860 43410 25890 43390 25910 43340V43270L25890 43220 25860 43200 25820 43180H25630"/>
<path transform="matrix(.0072,0,0,-.0072,-113,374)" stroke-width="60" stroke-linecap="round" stroke-linejoin="round" fill="none" stroke="#008484" d="M26080 43440H26390L26220 43250H26290L26340 43220 26360 43200 26390 43150V43030L26360 42990 26340 42960 26290 42940H26150L26100 42960 26080 42990"/>
<text fill-opacity="0" xml:space="preserve" transform="matrix(.0072 0 -0 .0072 68.65599 72.24802)" font-size="696.379" font-family="Nimbus Sans"><tspan y="0" x="0 387.18678 774.37356 1161.5603">100k</tspan></text>
<path transform="matrix(.0072,0,0,-.0072,68.65599,72.24802)" stroke-width="60" stroke-linecap="round" stroke-linejoin="round" fill="none" stroke="#008484" d=""/>
<path transform="matrix(.0072,0,0,-.0072,-113,374)" stroke-width="60" stroke-linecap="round" stroke-linejoin="round" fill="none" stroke="#008484" d="M25460 41940H25170"/>
<path transform="matrix(.0072,0,0,-.0072,-113,374)" stroke-width="60" stroke-linecap="round" stroke-linejoin="round" fill="none" stroke="#008484" d="M25320 41940V42440L25270 42370 25220 42320 25170 42300"/>
<path transform="matrix(.0072,0,0,-.0072,-113,374)" stroke-width="60" stroke-linecap="round" stroke-linejoin="round" fill="none" stroke="#008484" d="M25770 42440H25820L25860 42410 25890 42390 25910 42340 25940 42250V42130L25910 42030 25890 41990 25860 41960 25820 41940H25770L25720 41960 25700 41990 25670 42030 25650 42130V42250L25670 42340 25700 42390 25720 42410 25770 42440"/>
<path transform="matrix(.0072,0,0,-.0072,-113,374)" stroke-width="60" stroke-linecap="round" stroke-linejoin="round" fill="none" stroke="#008484" d="M26250 42440H26290L26340 42410 26360 42390 26390 42340 26410 42250V42130L26390 42030 26360 41990 26340 41960 26290 41940H26250L26200 41960 26170 41990 26150 42030 26130 42130V42250L26150 42340 26170 42390 26200 42410 26250 42440"/>
<path transform="matrix(.0072,0,0,-.0072,-113,374)" stroke-width="60" stroke-linecap="round" stroke-linejoin="round" fill="none" stroke="#008484" d="M26630 41940V42440"/>
<path transform="matrix(.0072,0,0,-.0072,-113,374)" stroke-width="60" stroke-linecap="round" stroke-linejoin="round" fill="none" stroke="#008484" d="M26670 42130 26820 41940"/>
<path transform="matrix(.0072,0,0,-.0072,-113,374)" stroke-width="60" stroke-linecap="round" stroke-linejoin="round" fill="none" stroke="#008484" d="M26820 42270 26630 42080"/>
<path transform="matrix(.0072,0,0,-.0072,-113,374)" d="M39000 45180 35000 47180V43180L39000 45180Z" fill="#ffffc2"/>
<path transform="matrix(.0072,0,0,-.0072,-113,374)" stroke-width="10" stroke-linecap="round" stroke-linejoin="round" fill="none" stroke="#ffffc2" d="M39000 45180 35000 47180V43180L39000 45180Z"/>
<path transform="matrix(.0072,0,0,-.0072,-113,374)" stroke-width="100" stroke-linecap="round" stroke-linejoin="round" fill="none" stroke="#840000" d="M39000 45180 35000 47180V43180L39000 45180"/>
<path transform="matrix(.0072,0,0,-.0072,-113,374)" stroke-width="100" stroke-linecap="round" stroke-linejoin="round" fill="none" stroke="#840000" d="M39000 45180 35000 47180V43180L39000 45180"/>
<path transform="matrix(.0072,0,0,-.0072,-113,374)" stroke-width="60" stroke-linecap="round" stroke-linejoin="round" fill="none" stroke="#840000" d="M35000 46180H34000"/>
<text fill-opacity="0" xml:space="preserve" transform="matrix(.0072 0 -0 .0072 139.72 43.304018)" font-size="696.379" font-family="Nimbus Sans"><tspan y="0" x="0">+</tspan></text>
<path transform="matrix(.0072,0,0,-.0072,139.72,43.304018)" stroke-width="60" stroke-linecap="round" stroke-linejoin="round" fill="none" stroke="#008484" d=""/>
<path transform="matrix(.0072,0,0,-.0072,-113,374)" stroke-width="60" stroke-linecap="round" stroke-linejoin="round" fill="none" stroke="#008484" d="M35240 46150H35630"/>
<path transform="matrix(.0072,0,0,-.0072,-113,374)" stroke-width="60" stroke-linecap="round" stroke-linejoin="round" fill="none" stroke="#008484" d="M35430 45960V46340"/>
<text fill-opacity="0" xml:space="preserve" transform="matrix(.0072 0 -0 .0072 134.032 40.783998)" font-size="696.379" font-family="Nimbus Sans"><tspan y="0" x="0">1</tspan></text>
<path transform="matrix(.0072,0,0,-.0072,134.032,40.783998)" stroke-width="60" stroke-linecap="round" stroke-linejoin="round" fill="none" stroke="#840000" d=""/>
<path transform="matrix(.0072,0,0,-.0072,-113,374)" stroke-width="60" stroke-linecap="round" stroke-linejoin="round" fill="none" stroke="#840000" d="M34640 46310H34350"/>
<path transform="matrix(.0072,0,0,-.0072,-113,374)" stroke-width="60" stroke-linecap="round" stroke-linejoin="round" fill="none" stroke="#840000" d="M34500 46310V46810L34450 46740 34400 46690 34350 46670"/>
<path transform="matrix(.0072,0,0,-.0072,-113,374)" stroke-width="60" stroke-linecap="round" stroke-linejoin="round" fill="none" stroke="#840000" d="M35000 44180H34000"/>
<text fill-opacity="0" xml:space="preserve" transform="matrix(.0072 0 -0 .0072 139.72 57.70401)" font-size="696.379" font-family="Nimbus Sans"><tspan y="0" x="0">-</tspan></text>
<path transform="matrix(.0072,0,0,-.0072,139.72,57.70401)" stroke-width="60" stroke-linecap="round" stroke-linejoin="round" fill="none" stroke="#008484" d=""/>
<path transform="matrix(.0072,0,0,-.0072,-113,374)" stroke-width="60" stroke-linecap="round" stroke-linejoin="round" fill="none" stroke="#008484" d="M35240 44150H35630"/>
<text fill-opacity="0" xml:space="preserve" transform="matrix(.0072 0 -0 .0072 134.032 55.18399)" font-size="696.379" font-family="Nimbus Sans"><tspan y="0" x="0">2</tspan></text>
<path transform="matrix(.0072,0,0,-.0072,134.032,55.18399)" stroke-width="60" stroke-linecap="round" stroke-linejoin="round" fill="none" stroke="#840000" d=""/>
<path transform="matrix(.0072,0,0,-.0072,-113,374)" stroke-width="60" stroke-linecap="round" stroke-linejoin="round" fill="none" stroke="#840000" d="M34350 44760 34380 44780 34420 44810H34540L34590 44780 34610 44760 34640 44710V44670L34610 44590 34330 44310H34640"/>
<path transform="matrix(.0072,0,0,-.0072,-113,374)" stroke-width="60" stroke-linecap="round" stroke-linejoin="round" fill="none" stroke="#840000" d="M39000 45180H40000"/>
<text fill-opacity="0" xml:space="preserve" transform="matrix(.0072 0 -0 .0072 170.03199 47.98401)" font-size="696.379" font-family="Nimbus Sans"><tspan y="0" x="0">3</tspan></text>
<path transform="matrix(.0072,0,0,-.0072,170.03199,47.98401)" stroke-width="60" stroke-linecap="round" stroke-linejoin="round" fill="none" stroke="#840000" d=""/>
<path transform="matrix(.0072,0,0,-.0072,-113,374)" stroke-width="60" stroke-linecap="round" stroke-linejoin="round" fill="none" stroke="#840000" d="M39330 45810H39640L39470 45620H39540L39590 45590 39610 45570 39640 45520V45400L39610 45360 39590 45330 39540 45310H39400L39350 45330 39330 45360"/>
<path transform="matrix(.0072,0,0,-.0072,-113,374)" stroke-width="60" stroke-linecap="round" stroke-linejoin="round" fill="none" stroke="#840000" d="M36000 46680V48180"/>
<text fill-opacity="0" xml:space="preserve" transform="matrix(0 -.0072 .0072 0 148 44.888)" font-size="696.379" font-family="Nimbus Sans"><tspan y="0" x="0 464.48487">V+</tspan></text>
<path transform="matrix(0,-.0072,-.0072,-0,148,44.888)" stroke-width="60" stroke-linecap="round" stroke-linejoin="round" fill="none" stroke="#008484" d=""/>
<path transform="matrix(.0072,0,0,-.0072,-113,374)" stroke-width="60" stroke-linecap="round" stroke-linejoin="round" fill="none" stroke="#008484" d="M35720 45550 36220 45720 35720 45890"/>
<path transform="matrix(.0072,0,0,-.0072,-113,374)" stroke-width="60" stroke-linecap="round" stroke-linejoin="round" fill="none" stroke="#008484" d="M36030 46050V46440"/>
<path transform="matrix(.0072,0,0,-.0072,-113,374)" stroke-width="60" stroke-linecap="round" stroke-linejoin="round" fill="none" stroke="#008484" d="M36220 46250H35840"/>
<text fill-opacity="0" xml:space="preserve" transform="matrix(0 -.0072 .0072 0 145.47998 33.87201)" font-size="696.379" font-family="Nimbus Sans"><tspan y="0" x="0">4</tspan></text>
<path transform="matrix(0,-.0072,-.0072,-0,145.47998,33.87201)" stroke-width="60" stroke-linecap="round" stroke-linejoin="round" fill="none" stroke="#840000" d=""/>
<path transform="matrix(.0072,0,0,-.0072,-113,374)" stroke-width="60" stroke-linecap="round" stroke-linejoin="round" fill="none" stroke="#840000" d="M35540 47530H35870"/>
<path transform="matrix(.0072,0,0,-.0072,-113,374)" stroke-width="60" stroke-linecap="round" stroke-linejoin="round" fill="none" stroke="#840000" d="M35350 47410 35700 47290V47600"/>
<path transform="matrix(.0072,0,0,-.0072,-113,374)" stroke-width="60" stroke-linecap="round" stroke-linejoin="round" fill="none" stroke="#840000" d="M36000 43680V42180"/>
<text fill-opacity="0" xml:space="preserve" transform="matrix(0 -.0072 .0072 0 148 58.783998)" font-size="696.379" font-family="Nimbus Sans"><tspan y="0" x="0 464.48487">V-</tspan></text>
<path transform="matrix(0,-.0072,-.0072,-0,148,58.783998)" stroke-width="60" stroke-linecap="round" stroke-linejoin="round" fill="none" stroke="#008484" d=""/>
<path transform="matrix(.0072,0,0,-.0072,-113,374)" stroke-width="60" stroke-linecap="round" stroke-linejoin="round" fill="none" stroke="#008484" d="M35720 43860 36220 44030 35720 44200"/>
<path transform="matrix(.0072,0,0,-.0072,-113,374)" stroke-width="60" stroke-linecap="round" stroke-linejoin="round" fill="none" stroke="#008484" d="M36030 44360V44740"/>
<text fill-opacity="0" xml:space="preserve" transform="matrix(0 -.0072 .0072 0 145.47998 66.272)" font-size="696.379" font-family="Nimbus Sans"><tspan y="0" x="0">5</tspan></text>
<path transform="matrix(0,-.0072,-.0072,-0,145.47998,66.272)" stroke-width="60" stroke-linecap="round" stroke-linejoin="round" fill="none" stroke="#840000" d=""/>
<path transform="matrix(.0072,0,0,-.0072,-113,374)" stroke-width="60" stroke-linecap="round" stroke-linejoin="round" fill="none" stroke="#840000" d="M35370 43050V42820L35610 42790 35590 42820 35560 42860V42980L35590 43030 35610 43050 35660 43080H35780L35820 43050 35850 43030 35870 42980V42860L35850 42820 35820 42790"/>
<text fill-opacity="0" xml:space="preserve" transform="matrix(.0072 0 -0 .0072 161.24799 32.64801)" font-size="696.379" font-family="Nimbus Sans"><tspan y="0" x="0 502.7857">U1</tspan></text>
<path transform="matrix(.0072,0,0,-.0072,161.24799,32.64801)" stroke-width="60" stroke-linecap="round" stroke-linejoin="round" fill="none" stroke="#008484" d=""/>
<path transform="matrix(.0072,0,0,-.0072,-113,374)" stroke-width="60" stroke-linecap="round" stroke-linejoin="round" fill="none" stroke="#008484" d="M38140 47940V47530L38170 47490 38190 47460 38240 47440H38330L38380 47460 38410 47490 38430 47530V47940"/>
<path transform="matrix(.0072,0,0,-.0072,-113,374)" stroke-width="60" stroke-linecap="round" stroke-linejoin="round" fill="none" stroke="#008484" d="M38930 47440H38640"/>
<path transform="matrix(.0072,0,0,-.0072,-113,374)" stroke-width="60" stroke-linecap="round" stroke-linejoin="round" fill="none" stroke="#008484" d="M38790 47440V47940L38740 47870 38690 47820 38640 47800"/>
<text fill-opacity="0" xml:space="preserve" transform="matrix(.0072 0 -0 .0072 162.328 39.847993)" font-size="696.379" font-family="Nimbus Sans"><tspan y="0" x="0 580.0838 1082.8695 1470.0563 1857.243 2244.4298 2631.6165">MC33204</tspan></text>
<path transform="matrix(.0072,0,0,-.0072,162.328,39.847993)" stroke-width="60" stroke-linecap="round" stroke-linejoin="round" fill="none" stroke="#008484" d=""/>
<path transform="matrix(.0072,0,0,-.0072,-113,374)" stroke-width="60" stroke-linecap="round" stroke-linejoin="round" fill="none" stroke="#008484" d="M38140 46440V46940L38300 46580 38470 46940V46440"/>
<path transform="matrix(.0072,0,0,-.0072,-113,374)" stroke-width="60" stroke-linecap="round" stroke-linejoin="round" fill="none" stroke="#008484" d="M39000 46490 38970 46460 38900 46440H38850L38780 46460 38730 46510 38710 46560 38690 46650V46720L38710 46820 38730 46870 38780 46910 38850 46940H38900L38970 46910 39000 46890"/>
<path transform="matrix(.0072,0,0,-.0072,-113,374)" stroke-width="60" stroke-linecap="round" stroke-linejoin="round" fill="none" stroke="#008484" d="M39160 46940H39470L39300 46750H39380L39420 46720 39450 46700 39470 46650V46530L39450 46490 39420 46460 39380 46440H39230L39190 46460 39160 46490"/>
<path transform="matrix(.0072,0,0,-.0072,-113,374)" stroke-width="60" stroke-linecap="round" stroke-linejoin="round" fill="none" stroke="#008484" d="M39640 46940H39950L39780 46750H39850L39900 46720 39920 46700 39950 46650V46530L39920 46490 39900 46460 39850 46440H39710L39660 46460 39640 46490"/>
<path transform="matrix(.0072,0,0,-.0072,-113,374)" stroke-width="60" stroke-linecap="round" stroke-linejoin="round" fill="none" stroke="#008484" d="M40140 46890 40160 46910 40210 46940H40330L40380 46910 40400 46890 40420 46840V46800L40400 46720 40110 46440H40420"/>
<path transform="matrix(.0072,0,0,-.0072,-113,374)" stroke-width="60" stroke-linecap="round" stroke-linejoin="round" fill="none" stroke="#008484" d="M40730 46940H40780L40830 46910 40850 46890 40880 46840 40900 46750V46630L40880 46530 40850 46490 40830 46460 40780 46440H40730L40690 46460 40660 46490 40640 46530 40610 46630V46750L40640 46840 40660 46890 40690 46910 40730 46940"/>
<path transform="matrix(.0072,0,0,-.0072,-113,374)" stroke-width="60" stroke-linecap="round" stroke-linejoin="round" fill="none" stroke="#008484" d="M41330 46770V46440"/>
<path transform="matrix(.0072,0,0,-.0072,-113,374)" stroke-width="60" stroke-linecap="round" stroke-linejoin="round" fill="none" stroke="#008484" d="M41210 46960 41090 46610H41400"/>
<path transform="matrix(.0072,0,0,-.0072,-113,374)" stroke-width="100" stroke-linecap="round" stroke-linejoin="round" fill="none" stroke="#840000" d="M20000 44580H22000V43780H20000Z"/>
<path transform="matrix(.0072,0,0,-.0072,-113,374)" stroke-width="60" stroke-linecap="round" stroke-linejoin="round" fill="none" stroke="#840000" d="M22000 44180H22500"/>
<path transform="matrix(.0072,0,0,-.0072,-113,374)" stroke-width="60" stroke-linecap="round" stroke-linejoin="round" fill="none" stroke="#840000" d="M20000 44180H19500"/>
<text fill-opacity="0" xml:space="preserve" transform="matrix(.0072 0 -0 .0072 35.031999 65.048007)" font-size="696.379" font-family="Nimbus Sans"><tspan y="0" x="0 502.7857">R2</tspan></text>
<path transform="matrix(.0072,0,0,-.0072,35.031999,65.048007)" stroke-width="60" stroke-linecap="round" stroke-linejoin="round" fill="none" stroke="#008484" d=""/>
<path transform="matrix(.0072,0,0,-.0072,-113,374)" stroke-width="60" stroke-linecap="round" stroke-linejoin="round" fill="none" stroke="#008484" d="M20910 42940 20750 43180"/>
<path transform="matrix(.0072,0,0,-.0072,-113,374)" stroke-width="60" stroke-linecap="round" stroke-linejoin="round" fill="none" stroke="#008484" d="M20630 42940V43440H20820L20860 43410 20890 43390 20910 43340V43270L20890 43220 20860 43200 20820 43180H20630"/>
<path transform="matrix(.0072,0,0,-.0072,-113,374)" stroke-width="60" stroke-linecap="round" stroke-linejoin="round" fill="none" stroke="#008484" d="M21100 43390 21130 43410 21170 43440H21290L21340 43410 21360 43390 21390 43340V43300L21360 43220 21080 42940H21390"/>
<text fill-opacity="0" xml:space="preserve" transform="matrix(.0072 0 -0 .0072 35.464006 72.24802)" font-size="696.379" font-family="Nimbus Sans"><tspan y="0" x="0 387.18678">1k</tspan></text>
<path transform="matrix(.0072,0,0,-.0072,35.464006,72.24802)" stroke-width="60" stroke-linecap="round" stroke-linejoin="round" fill="none" stroke="#008484" d=""/>
<path transform="matrix(.0072,0,0,-.0072,-113,374)" stroke-width="60" stroke-linecap="round" stroke-linejoin="round" fill="none" stroke="#008484" d="M20940 41940H20650"/>
<path transform="matrix(.0072,0,0,-.0072,-113,374)" stroke-width="60" stroke-linecap="round" stroke-linejoin="round" fill="none" stroke="#008484" d="M20790 41940V42440L20750 42370 20700 42320 20650 42300"/>
<path transform="matrix(.0072,0,0,-.0072,-113,374)" stroke-width="60" stroke-linecap="round" stroke-linejoin="round" fill="none" stroke="#008484" d="M21150 41940V42440"/>
<path transform="matrix(.0072,0,0,-.0072,-113,374)" stroke-width="60" stroke-linecap="round" stroke-linejoin="round" fill="none" stroke="#008484" d="M21200 42130 21340 41940"/>
<path transform="matrix(.0072,0,0,-.0072,-113,374)" stroke-width="60" stroke-linecap="round" stroke-linejoin="round" fill="none" stroke="#008484" d="M21340 42270 21150 42080"/>
<path transform="matrix(.0072,0,0,-.0072,-113,374)" stroke-width="100" stroke-linecap="round" stroke-linejoin="round" fill="none" stroke="#840000" d="M16600 39680H17400V41680H16600Z"/>
<path transform="matrix(.0072,0,0,-.0072,-113,374)" stroke-width="60" stroke-linecap="round" stroke-linejoin="round" fill="none" stroke="#840000" d="M17000 41680V42180"/>
<path transform="matrix(.0072,0,0,-.0072,-113,374)" stroke-width="60" stroke-linecap="round" stroke-linejoin="round" fill="none" stroke="#840000" d="M17000 39680V39180"/>
<text fill-opacity="0" xml:space="preserve" transform="matrix(.0072 0 -0 .0072 15.015991 79.73599)" font-size="696.379" font-family="Nimbus Sans"><tspan y="0" x="0 502.7857">R1</tspan></text>
<path transform="matrix(.0072,0,0,-.0072,15.015991,79.73599)" stroke-width="60" stroke-linecap="round" stroke-linejoin="round" fill="none" stroke="#008484" d=""/>
<path transform="matrix(.0072,0,0,-.0072,-113,374)" stroke-width="60" stroke-linecap="round" stroke-linejoin="round" fill="none" stroke="#008484" d="M18130 40900 17970 41140"/>
<path transform="matrix(.0072,0,0,-.0072,-113,374)" stroke-width="60" stroke-linecap="round" stroke-linejoin="round" fill="none" stroke="#008484" d="M17850 40900V41400H18040L18080 41370 18110 41350 18130 41300V41230L18110 41180 18080 41160 18040 41140H17850"/>
<path transform="matrix(.0072,0,0,-.0072,-113,374)" stroke-width="60" stroke-linecap="round" stroke-linejoin="round" fill="none" stroke="#008484" d="M18610 40900H18320"/>
<path transform="matrix(.0072,0,0,-.0072,-113,374)" stroke-width="60" stroke-linecap="round" stroke-linejoin="round" fill="none" stroke="#008484" d="M18470 40900V41400L18420 41330 18370 41280 18320 41260"/>
<text fill-opacity="0" xml:space="preserve" transform="matrix(.0072 0 -0 .0072 15.015991 86.287998)" font-size="696.379" font-family="Nimbus Sans"><tspan y="0" x="0">1</tspan></text>
<path transform="matrix(.0072,0,0,-.0072,15.015991,86.287998)" stroke-width="60" stroke-linecap="round" stroke-linejoin="round" fill="none" stroke="#008484" d=""/>
<path transform="matrix(.0072,0,0,-.0072,-113,374)" stroke-width="60" stroke-linecap="round" stroke-linejoin="round" fill="none" stroke="#008484" d="M18110 39990H17820"/>
<path transform="matrix(.0072,0,0,-.0072,-113,374)" stroke-width="60" stroke-linecap="round" stroke-linejoin="round" fill="none" stroke="#008484" d="M17970 39990V40490L17920 40420 17870 40370 17820 40350"/>
<path transform="matrix(.0072,0,0,-.0072,-113,374)" stroke-width="60" stroke-linecap="round" stroke-linejoin="round" fill="none" stroke="#008400" d="M33000 38680H37000"/>
<path transform="matrix(.0072,0,0,-.0072,-113,374)" stroke-width="60" stroke-linecap="round" stroke-linejoin="round" fill="none" stroke="#008400" d="M19000 44180H19500"/>
<path transform="matrix(.0072,0,0,-.0072,-113,374)" stroke-width="60" stroke-linecap="round" stroke-linejoin="round" fill="none" stroke="#008400" d="M41500 38680V45180"/>
<path transform="matrix(.0072,0,0,-.0072,-113,374)" stroke-width="60" stroke-linecap="round" stroke-linejoin="round" fill="none" stroke="#008400" d="M41500 45180H40000"/>
<path transform="matrix(.0072,0,0,-.0072,-113,374)" stroke-width="60" stroke-linecap="round" stroke-linejoin="round" fill="none" stroke="#008400" d="M33000 39680V38680"/>
<path transform="matrix(.0072,0,0,-.0072,-113,374)" stroke-width="60" stroke-linecap="round" stroke-linejoin="round" fill="none" stroke="#008400" d="M40000 38680H41500"/>
<path transform="matrix(.0072,0,0,-.0072,-113,374)" stroke-width="60" stroke-linecap="round" stroke-linejoin="round" fill="none" stroke="#008400" d="M36000 49180V48180"/>
<path transform="matrix(.0072,0,0,-.0072,-113,374)" stroke-width="60" stroke-linecap="round" stroke-linejoin="round" fill="none" stroke="#008400" d="M36000 42180V41180"/>
<path transform="matrix(.0072,0,0,-.0072,-113,374)" stroke-width="60" stroke-linecap="round" stroke-linejoin="round" fill="none" stroke="#008400" d="M29000 44180V42680"/>
<path transform="matrix(.0072,0,0,-.0072,-113,374)" stroke-width="60" stroke-linecap="round" stroke-linejoin="round" fill="none" stroke="#008400" d="M29000 39680V38180"/>
<path transform="matrix(.0072,0,0,-.0072,-113,374)" stroke-width="60" stroke-linecap="round" stroke-linejoin="round" fill="none" stroke="#008400" d="M29000 44180H30000"/>
<path transform="matrix(.0072,0,0,-.0072,-113,374)" stroke-width="60" stroke-linecap="round" stroke-linejoin="round" fill="none" stroke="#008400" d="M42000 45180H41500"/>
<path transform="matrix(.0072,0,0,-.0072,-113,374)" stroke-width="60" stroke-linecap="round" stroke-linejoin="round" fill="none" stroke="#008400" d="M23000 44180H24500"/>
<path transform="matrix(.0072,0,0,-.0072,-113,374)" stroke-width="60" stroke-linecap="round" stroke-linejoin="round" fill="none" stroke="#008400" d="M27500 44180H29000"/>
<path transform="matrix(.0072,0,0,-.0072,-113,374)" stroke-width="60" stroke-linecap="round" stroke-linejoin="round" fill="none" stroke="#008400" d="M33000 38180V38680"/>
<path transform="matrix(.0072,0,0,-.0072,-113,374)" stroke-width="60" stroke-linecap="round" stroke-linejoin="round" fill="none" stroke="#008400" d="M34000 44180H33000"/>
<path transform="matrix(.0072,0,0,-.0072,-113,374)" stroke-width="60" stroke-linecap="round" stroke-linejoin="round" fill="none" stroke="#008400" d="M17000 49180V48180"/>
<path transform="matrix(.0072,0,0,-.0072,-113,374)" stroke-width="60" stroke-linecap="round" stroke-linejoin="round" fill="none" stroke="#008400" d="M17000 43180V42680"/>
<path transform="matrix(.0072,0,0,-.0072,-113,374)" stroke-width="60" stroke-linecap="round" stroke-linejoin="round" fill="none" stroke="#008400" d="M17000 39180V38180"/>
<path transform="matrix(.0072,0,0,-.0072,-113,374)" stroke-width="60" stroke-linecap="round" stroke-linejoin="round" fill="none" stroke="#008400" d="M17000 42680H19000"/>
<path transform="matrix(.0072,0,0,-.0072,-113,374)" stroke-width="60" stroke-linecap="round" stroke-linejoin="round" fill="none" stroke="#008400" d="M19000 42680V44180"/>
<path transform="matrix(.0072,0,0,-.0072,-113,374)" stroke-width="60" stroke-linecap="round" stroke-linejoin="round" fill="none" stroke="#008400" d="M30000 44180V46180"/>
<path transform="matrix(.0072,0,0,-.0072,-113,374)" stroke-width="60" stroke-linecap="round" stroke-linejoin="round" fill="none" stroke="#008400" d="M17000 42680V42180"/>
<path transform="matrix(.0072,0,0,-.0072,-113,374)" stroke-width="60" stroke-linecap="round" stroke-linejoin="round" fill="none" stroke="#008400" d="M23000 38180V39680"/>
<path transform="matrix(.0072,0,0,-.0072,-113,374)" stroke-width="60" stroke-linecap="round" stroke-linejoin="round" fill="none" stroke="#008400" d="M23000 42680V44180"/>
<path transform="matrix(.0072,0,0,-.0072,-113,374)" stroke-width="60" stroke-linecap="round" stroke-linejoin="round" fill="none" stroke="#008400" d="M22500 44180H23000"/>
<path transform="matrix(.0072,0,0,-.0072,-113,374)" stroke-width="60" stroke-linecap="round" stroke-linejoin="round" fill="none" stroke="#008400" d="M30000 46180H34000"/>
<path transform="matrix(.0072,0,0,-.0072,-113,374)" stroke-width="60" stroke-linecap="round" stroke-linejoin="round" fill="none" stroke="#008400" d="M33000 44180V42680"/>
<text fill-opacity="0" xml:space="preserve" transform="matrix(.0072 0 -0 .0072 193.72 50.503999)" font-size="696.379" font-family="Nimbus Sans"><tspan y="0" x="0 580.0838 1082.8695">MCS</tspan></text>
<path transform="matrix(.0072,0,0,-.0072,193.72,50.503999)" stroke-width="60" stroke-linecap="round" stroke-linejoin="round" fill="none" stroke="#848400" d=""/>
<path transform="matrix(.0072,0,0,-.0072,-113,374)" stroke-width="60" stroke-linecap="round" stroke-linejoin="round" fill="none" stroke="#848400" d="M42740 44960V45460L42910 45100 43080 45460V44960"/>
<path transform="matrix(.0072,0,0,-.0072,-113,374)" stroke-width="60" stroke-linecap="round" stroke-linejoin="round" fill="none" stroke="#848400" d="M43600 45010 43580 44980 43510 44960H43460L43390 44980 43340 45030 43320 45080 43290 45170V45240L43320 45340 43340 45390 43390 45430 43460 45460H43510L43580 45430 43600 45410"/>
<path transform="matrix(.0072,0,0,-.0072,-113,374)" stroke-width="60" stroke-linecap="round" stroke-linejoin="round" fill="none" stroke="#848400" d="M43790 44980 43860 44960H43980L44030 44980 44050 45010 44080 45050V45100L44050 45150 44030 45170 43980 45200 43890 45220 43840 45240 43820 45270 43790 45320V45360L43820 45410 43840 45430 43890 45460H44010L44080 45430"/>
<path transform="matrix(.0072,0,0,-.0072,-113,374)" stroke-width="100" stroke-linecap="round" stroke-linejoin="round" fill="none" stroke="#848400" d="M42500 45180 42250 45430H42000V44930H42250L42500 45180"/>
<text fill-opacity="0" xml:space="preserve" transform="matrix(0 -.0072 .0072 0 11.199997 15.584015)" font-size="696.379" font-family="Nimbus Sans"><tspan y="0" x="0 580.0838 1121.8667 1547.3543">MOT+</tspan></text>
<path transform="matrix(0,-.0072,-.0072,-0,11.199997,15.584015)" stroke-width="60" stroke-linecap="round" stroke-linejoin="round" fill="none" stroke="#848400" d=""/>
<path transform="matrix(.0072,0,0,-.0072,-113,374)" stroke-width="60" stroke-linecap="round" stroke-linejoin="round" fill="none" stroke="#848400" d="M17220 49930H16720L17080 50100 16720 50270H17220"/>
<path transform="matrix(.0072,0,0,-.0072,-113,374)" stroke-width="60" stroke-linecap="round" stroke-linejoin="round" fill="none" stroke="#848400" d="M16720 50600V50700L16750 50740 16790 50790 16890 50810H17050L17150 50790 17200 50740 17220 50700V50600L17200 50550 17150 50510 17050 50480H16890L16790 50510 16750 50550 16720 50600"/>
<path transform="matrix(.0072,0,0,-.0072,-113,374)" stroke-width="60" stroke-linecap="round" stroke-linejoin="round" fill="none" stroke="#848400" d="M16720 50960V51240"/>
<path transform="matrix(.0072,0,0,-.0072,-113,374)" stroke-width="60" stroke-linecap="round" stroke-linejoin="round" fill="none" stroke="#848400" d="M17220 51100H16720"/>
<path transform="matrix(.0072,0,0,-.0072,-113,374)" stroke-width="60" stroke-linecap="round" stroke-linejoin="round" fill="none" stroke="#848400" d="M17030 51410V51790"/>
<path transform="matrix(.0072,0,0,-.0072,-113,374)" stroke-width="60" stroke-linecap="round" stroke-linejoin="round" fill="none" stroke="#848400" d="M17220 51600H16840"/>
<path transform="matrix(.0072,0,0,-.0072,-113,374)" stroke-width="100" stroke-linecap="round" stroke-linejoin="round" fill="none" stroke="#848400" d="M17000 49180 17250 49430V49680H16750V49430L17000 49180"/>
<text fill-opacity="0" xml:space="preserve" transform="matrix(0 -.0072 .0072 0 11.199997 116.23999)" font-size="696.379" font-family="Nimbus Sans"><tspan y="0" x="0 580.0838 1121.8667 1547.3543">MOT-</tspan></text>
<path transform="matrix(0,-.0072,-.0072,-0,11.199997,116.23999)" stroke-width="60" stroke-linecap="round" stroke-linejoin="round" fill="none" stroke="#848400" d=""/>
<path transform="matrix(.0072,0,0,-.0072,-113,374)" stroke-width="60" stroke-linecap="round" stroke-linejoin="round" fill="none" stroke="#848400" d="M17220 35580H16720L17080 35750 16720 35910H17220"/>
<path transform="matrix(.0072,0,0,-.0072,-113,374)" stroke-width="60" stroke-linecap="round" stroke-linejoin="round" fill="none" stroke="#848400" d="M16720 36250V36340L16750 36390 16790 36440 16890 36460H17050L17150 36440 17200 36390 17220 36340V36250L17200 36200 17150 36150 17050 36130H16890L16790 36150 16750 36200 16720 36250"/>
<path transform="matrix(.0072,0,0,-.0072,-113,374)" stroke-width="60" stroke-linecap="round" stroke-linejoin="round" fill="none" stroke="#848400" d="M16720 36600V36890"/>
<path transform="matrix(.0072,0,0,-.0072,-113,374)" stroke-width="60" stroke-linecap="round" stroke-linejoin="round" fill="none" stroke="#848400" d="M17220 36750H16720"/>
<path transform="matrix(.0072,0,0,-.0072,-113,374)" stroke-width="60" stroke-linecap="round" stroke-linejoin="round" fill="none" stroke="#848400" d="M17030 37050V37440"/>
<path transform="matrix(.0072,0,0,-.0072,-113,374)" stroke-width="100" stroke-linecap="round" stroke-linejoin="round" fill="none" stroke="#848400" d="M17000 38180 17250 37930V37680H16750V37930L17000 38180"/>
<path transform="matrix(.0072,0,0,-.0072,-113,374)" d="M16800 42680C16800 42790.4 16889.6 42880 17000 42880 17110.4 42880 17200 42790.4 17200 42680 17200 42569.6 17110.4 42480 17000 42480 16889.6 42480 16800 42569.6 16800 42680Z" fill="#008400"/>
<path transform="matrix(.0072,0,0,-.0072,-113,374)" stroke-width="100" stroke-linecap="round" stroke-linejoin="round" fill="none" stroke="#008400" d="M16800 42680C16800 42790.4 16889.6 42880 17000 42880 17110.4 42880 17200 42790.4 17200 42680 17200 42569.6 17110.4 42480 17000 42480 16889.6 42480 16800 42569.6 16800 42680Z"/>
<path transform="matrix(.0072,0,0,-.0072,-113,374)" d="M41300 45180C41300 45290.4 41389.6 45380 41500 45380 41610.4 45380 41700 45290.4 41700 45180 41700 45069.6 41610.4 44980 41500 44980 41389.6 44980 41300 45069.6 41300 45180Z" fill="#008400"/>
<path transform="matrix(.0072,0,0,-.0072,-113,374)" stroke-width="100" stroke-linecap="round" stroke-linejoin="round" fill="none" stroke="#008400" d="M41300 45180C41300 45290.4 41389.6 45380 41500 45380 41610.4 45380 41700 45290.4 41700 45180 41700 45069.6 41610.4 44980 41500 44980 41389.6 44980 41300 45069.6 41300 45180Z"/>
<path transform="matrix(.0072,0,0,-.0072,-113,374)" d="M22800 44180C22800 44290.4 22889.6 44380 23000 44380 23110.4 44380 23200 44290.4 23200 44180 23200 44069.6 23110.4 43980 23000 43980 22889.6 43980 22800 44069.6 22800 44180Z" fill="#008400"/>
<path transform="matrix(.0072,0,0,-.0072,-113,374)" stroke-width="100" stroke-linecap="round" stroke-linejoin="round" fill="none" stroke="#008400" d="M22800 44180C22800 44290.4 22889.6 44380 23000 44380 23110.4 44380 23200 44290.4 23200 44180 23200 44069.6 23110.4 43980 23000 43980 22889.6 43980 22800 44069.6 22800 44180Z"/>
<path transform="matrix(.0072,0,0,-.0072,-113,374)" d="M28800 44180C28800 44290.4 28889.6 44380 29000 44380 29110.4 44380 29200 44290.4 29200 44180 29200 44069.6 29110.4 43980 29000 43980 28889.6 43980 28800 44069.6 28800 44180Z" fill="#008400"/>
<path transform="matrix(.0072,0,0,-.0072,-113,374)" stroke-width="100" stroke-linecap="round" stroke-linejoin="round" fill="none" stroke="#008400" d="M28800 44180C28800 44290.4 28889.6 44380 29000 44380 29110.4 44380 29200 44290.4 29200 44180 29200 44069.6 29110.4 43980 29000 43980 28889.6 43980 28800 44069.6 28800 44180Z"/>
<path transform="matrix(.0072,0,0,-.0072,-113,374)" d="M32800 38680C32800 38790.4 32889.6 38880 33000 38880 33110.4 38880 33200 38790.4 33200 38680 33200 38569.6 33110.4 38480 33000 38480 32889.6 38480 32800 38569.6 32800 38680Z" fill="#008400"/>
<path transform="matrix(.0072,0,0,-.0072,-113,374)" stroke-width="100" stroke-linecap="round" stroke-linejoin="round" fill="none" stroke="#008400" d="M32800 38680C32800 38790.4 32889.6 38880 33000 38880 33110.4 38880 33200 38790.4 33200 38680 33200 38569.6 33110.4 38480 33000 38480 32889.6 38480 32800 38569.6 32800 38680Z"/>
</g>
</svg>
